<?xml version="1.0" encoding="utf-8"?>
<!-- Generator: Adobe Illustrator 26.0.3, SVG Export Plug-In . SVG Version: 6.00 Build 0)  -->
<svg version="1.0" id="Layer_1" xmlns="http://www.w3.org/2000/svg" xmlns:xlink="http://www.w3.org/1999/xlink" x="0px" y="0px"
	 viewBox="0 0 257.7 189.1" style="enable-background:new 0 0 257.7 189.1;" xml:space="preserve">
<path d="M212,55.9c-0.4-0.7-1.2-1.1-2-1.1h-67.5c-1.7-0.1-3.4,0.5-4.6,1.7c-0.8,0.9-1.4,2-1.7,3.1c0,0-0.1,0.3-0.7,0.3h-13.3
	c-0.6,0-0.6-0.2-0.7-0.3c-0.3-1.2-0.9-2.3-1.7-3.1c-1.3-1.2-2.9-1.8-4.6-1.7H47.9c-0.8,0-1.6,0.4-2,1.1c-0.4,0.8-0.3,1.7,0.2,2.4
	l1.2,2c0.5,0.8,1.4,1.3,2.3,1.2c0.4,0.1,0.8,0.4,1,0.8l1.3,2.2c0.6,1.2,1.7,1.9,3,2c0.4,0.1,0.8,0.4,1,0.8l1.6,2.7
	c0.5,0.8,1.3,1.4,2.3,1.6l28.2,8.3c0.6,0.3,1.1,0.8,1.4,1.4c0.7,1.7,1.6,3.2,5.9,4.5l23,6.2c1.7,0.5,3.6,0.2,4.9-1l5.4-5.2
	c0.1-0.1,0.3-0.2,0.5-0.2c0.2,0,0.4,0.1,0.5,0.2l5.4,5.2c1.3,1.2,3.2,1.6,4.9,1l23-6.2c4.4-1.3,5.2-2.7,5.9-4.5
	c0.2-0.7,0.8-1.2,1.4-1.4l28.2-8.3c0.9-0.2,1.7-0.8,2.3-1.6l1.6-2.7c0.2-0.4,0.6-0.7,1-0.8c1.3-0.1,2.5-0.8,3.1-2l1.2-2.2
	c0.2-0.4,0.6-0.7,1-0.8c0.9,0,1.8-0.4,2.3-1.2l1.2-2C212.3,57.6,212.3,56.7,212,55.9z M137.5,60c0.2-1,0.7-1.9,1.3-2.6
	c1-0.9,2.3-1.5,3.7-1.4h31c-0.7,0.5-1.2,1.1-1.6,1.9c-0.4,0.7-0.8,1.4-1.3,2.3h-33.1C137.4,60.2,137.5,60.1,137.5,60z M163.2,67.4
	v-1.6l3,0.4c-0.4,0.5-0.8,1-1.3,1.5C164.4,67.7,163.8,67.6,163.2,67.4z M164.2,68.6c-0.3,0.4-0.6,0.7-0.9,1.1v-1.2L164.2,68.6z
	 M163.2,64.9v-1.4l4.8,0.3c-0.4,0.5-0.8,1-1.1,1.5L163.2,64.9z M163.2,62.6v-1.3h6.6c-0.3,0.5-0.7,1.1-1.1,1.6L163.2,62.6z
	 M115.2,56.1c1.4-0.1,2.7,0.4,3.7,1.4c0.7,0.7,1.1,1.6,1.3,2.6l0.2,0.3H87.3c-0.5-0.8-1.3-2.3-1.3-2.3c-0.4-0.7-1-1.3-1.6-1.9
	C100.3,56.1,115.3,56.1,115.2,56.1L115.2,56.1z M92.9,67.8c-0.5-0.5-0.9-1-1.2-1.5l3-0.4v1.6L92.9,67.8z M94.5,68.4v1.2
	c-0.3-0.3-0.6-0.7-0.9-1C93.9,68.6,94.2,68.5,94.5,68.4L94.5,68.4z M90.9,65.4c-0.4-0.5-0.8-1-1.1-1.5l4.8-0.3v1.2L90.9,65.4z
	 M94.5,62.6L89.1,63c-0.4-0.6-0.8-1.1-1.1-1.6h6.6V62.6z M49.5,60.4c-0.9-0.1-1.1-0.2-1.3-0.6c0,0-1.1-1.9-1.2-2
	c-0.1-0.2-0.2-0.5-0.2-0.8c0-0.5,0.3-0.8,1.1-0.8h33.5c2.3,0,3.7,2.3,3.7,2.3c0.3,0.5,0.6,1.2,1.1,1.9L49.5,60.4z M54.2,65.1
	c-0.6-0.2-1-0.6-1.3-1.1c-0.5-0.9-1-1.8-1.6-2.7h35.5c0.3,0.5,0.7,1.1,1.1,1.7l-31.2,2C55.8,65.2,54.9,65.2,54.2,65.1L54.2,65.1z
	 M59.9,69.5c-1.1,0.2-1.5-0.2-1.6-0.3l-1.4-2.6c-0.2-0.2-0.2-0.4-0.4-0.5c0.2,0,32.1-2.1,32.1-2.1c0.4,0.5,0.8,1.1,1.1,1.6
	L59.9,69.5z M67,72.4c-3-0.9-5.6-1.6-6.7-2l30.1-4.1c0.5,0.5,0.8,1.1,1.3,1.6l-20.5,4.3C69.8,72.6,68.4,72.6,67,72.4L67,72.4z
	 M77.3,75.4c-2.3-0.7-4.7-1.4-6.9-2c0.6-0.1,1.1-0.2,1.1-0.2s14.8-3,21.1-4.3c0.6,0.7,1.3,1.4,2,2l-13.8,4.3
	C80.6,75.2,78.7,75.8,77.3,75.4L77.3,75.4z M88,78.5c-0.3-0.1-3.6-1.1-7.8-2.3l0.7-0.2c0,0,11.6-3.6,14.2-4.3c1,0.9,2,1.9,3.2,2.8
	l-7.4,3.5C90,78.5,89,78.7,88,78.5z M112.9,71.5l-8.4,6c-1.4-0.9-2.9-1.9-4.3-2.9c3.1-1.5,6.1-2.8,6.6-3.1L112.9,71.5z M115.5,82.4
	c-1.7-0.5-3.4-1.1-5.1-1.7c3.5-3.7,7.7-8,8.8-9.1h2.7L115.5,82.4z M123.1,71.5h2.3l-3.4,12.3c-1.9-0.3-3.7-0.6-5.5-1.1
	C118.9,78.5,122.2,73.1,123.1,71.5L123.1,71.5z M109.5,80.4c-1.4-0.6-2.7-1.3-4.1-2c4-2.9,8.1-5.9,9.1-6.6h3.3L109.5,80.4z M99.3,74
	c-0.1-0.1-2-1.7-2.8-2.4h8L99.3,74z M93.9,83.9c-2.9-1.1-3.4-2.2-3.8-3.3c-0.2-0.4-0.4-0.8-0.8-1.1c0.7-0.1,1.3-0.3,1.9-0.6
	c0,0,4-1.8,7.8-3.7c1.4,1.1,2.9,2.1,4.4,3l-7,4.9C95.8,83.9,94.9,84.2,93.9,83.9z M102.3,86.4l-6.2-1.7c0.4-0.1,0.8-0.3,1.1-0.6
	c0,0,3.4-2.4,7.3-5.2c1.4,0.8,2.8,1.5,4.3,2.2l-4,4.3C104.1,86,103.2,86.4,102.3,86.4z M110.9,88.7l-6.6-1.8
	c0.5-0.2,0.9-0.5,1.2-0.9c0,0,1.9-2,4.3-4.5c1.7,0.8,3.4,1.4,5.2,1.9l-2.2,3.7C112.5,87.5,111.7,88.8,110.9,88.7z M120.6,88.8
	c-0.1,0.7-0.5,1.3-1.1,1.7c-0.4,0.2-0.9,0.3-1.3,0.2l-5.9-1.6c0.5-0.4,0.9-1,1.3-1.6l2.3-4c1.9,0.5,3.8,0.9,5.8,1.1L120.6,88.8z
	 M122,90c-0.4,0.4-0.9,0.7-1.4,0.8c0.4-0.5,0.7-1.1,0.9-1.7l1.1-4.1c1.4,0.2,2.9,0.2,4.4,0.3C126,86.4,122.1,90,122,90L122,90z
	 M128.4,84.3c-1.8,0-3.7-0.2-5.5-0.3l3.4-12.3h2L128.4,84.3z M95.5,70.7v-9.4h66.8v9.4L95.5,70.7z M135.9,71.6h2.7l8.8,9.1
	c-1.7,0.7-3.3,1.3-5.1,1.7L135.9,71.6z M141.3,82.7c-1.8,0.5-3.7,0.8-5.5,1.1l-3.4-12.2h2.3L141.3,82.7z M140,71.6h3.3l9.1,6.6
	c-1.3,0.7-2.7,1.4-4.1,2C145.3,77.2,141.6,73.4,140,71.6z M144.9,71.6h6l6.6,3.1c-1.4,1.1-2.8,2.1-4.3,3
	C150.1,75.4,146.7,72.9,144.9,71.6L144.9,71.6z M153.2,71.6h8c-0.9,0.9-1.8,1.7-2.8,2.4C156.5,73.2,154.6,72.3,153.2,71.6z
	 M129.4,84.3V71.7h2l3.4,12.3C133,84.2,131.2,84.3,129.4,84.3z M134.9,89.2c0,0-3.1-3.1-4.2-4c1.5-0.1,3-0.2,4.4-0.3l1.1,4.1
	c0.1,0.6,0.4,1.2,0.9,1.7C136.2,90.6,136,90.3,134.9,89.2z M139.6,90.7c-0.4,0.1-0.9,0.1-1.3-0.2c-0.6-0.4-0.9-1-1.1-1.7l-1.1-4.1
	c1.9-0.2,3.9-0.6,5.8-1.1l2.3,4c0.3,0.6,0.8,1.1,1.2,1.6L139.6,90.7z M146.9,88.7c-0.8,0.2-1.7-1.1-2-1.6l-2.2-3.7
	c1.8-0.5,3.6-1.1,5.3-1.9l4.3,4.5c0.4,0.3,0.8,0.7,1.2,0.9L146.9,88.7z M156.5,86.1l-1.1,0.3c-0.9,0.2-2-0.7-2.4-1.1l-4.1-4.2
	c1.4-0.7,2.9-1.4,4.3-2.2l7.3,5.2c0.4,0.2,0.7,0.4,1.1,0.6C160,85.1,156.5,86.1,156.5,86.1L156.5,86.1z M167.6,80.8
	c-0.5,1.1-0.9,2.1-3.8,3.3c-1.2,0.4-2.6-0.7-2.6-0.7s-3.3-2.3-7-5c1.5-0.9,3-2,4.4-3.1l7.9,3.7c0.6,0.3,1.2,0.5,1.8,0.6
	C168,79.9,167.7,80.3,167.6,80.8L167.6,80.8z M169.8,78.5c-1,0.1-2-0.1-2.9-0.5l-7.5-3.5c1.1-0.9,2.2-1.9,3.2-2.8l14.2,4.3
	c0.2,0.1,0.5,0.2,0.7,0.2L169.8,78.5z M180.5,75.4c-1.1,0.2-2.3,0.1-3.4-0.2l-13.8-4.3c0.7-0.7,1.3-1.4,2-2l21.1,4.3
	c0.4,0.1,0.7,0.2,1.1,0.2L180.5,75.4z M190.7,72.4c-1.4,0.2-2.7,0.1-4.1-0.2L166.1,68c0.5-0.5,0.9-1.1,1.3-1.6l30.1,4L190.7,72.4z
	 M201,66.6c0,0-1.2,2.2-1.5,2.7c-0.1,0.1-0.5,0.5-1.6,0.3l-29.9-4c0.5-0.5,0.8-1.1,1.2-1.6l31.7,2.2c0.1,0,0.3,0,0.4,0.1
	C201.1,66.3,201,66.5,201,66.6L201,66.6z M206.3,61.6l-1.2,2.3c-0.3,0.5-0.8,0.9-1.3,1.1c-0.9,0.1-1.8,0.1-2.6,0l-31.2-2
	c0.4-0.6,0.8-1.2,1.1-1.7h35.5C206.4,61.4,206.4,61.6,206.3,61.6L206.3,61.6z M210.8,57.6l-1.2,2c-0.2,0.4-0.4,0.5-1.3,0.6h-36.7
	c0.5-0.7,0.8-1.3,1.1-1.9c0,0,1.3-2.3,3.7-2.3h33.6c0.4,0,0.8,0.1,1.1,0.5c0,0.1,0.1,0.2,0.1,0.4C211,57.1,211,57.3,210.8,57.6
	L210.8,57.6z"/>
<path d="M99.9,62.8h-0.2l-2.9,6.4h0.8v-0.1c0.2-0.8,0.5-1.5,0.8-2.3l0.1-0.2h2.2c0.4,0.8,0.7,1.6,0.9,2.4v0.1h1.1L99.9,62.8z
	 M98.6,66.3c0.1-0.2,0.8-1.9,0.9-2.1c0.1,0.2,0.8,1.9,0.9,2.1H98.6z M105.3,65.5c-0.7-0.2-1.3-0.5-1.3-1.2c0-0.6,0.5-1,1.1-1
	c0.5,0,0.9,0.3,1.1,0.8v0.1h0.2l0.2-0.8c-0.4-0.3-0.8-0.5-1.3-0.5c-1.2,0-2,0.7-2,1.7s0.8,1.4,1.6,1.7c0.6,0.2,1.2,0.5,1.2,1.2
	c0,0.6-0.4,1.2-1.1,1.2c0,0-0.1,0-0.1,0c-0.6,0-1.2-0.3-1.4-0.9h-0.3l-0.2,0.9c0.4,0.4,0.9,0.5,1.5,0.5c1.1,0.1,2.2-0.7,2.3-1.9
	c0-0.1,0-0.1,0-0.2C106.9,66.1,106,65.8,105.3,65.5z M111.9,63.5v-0.7h-4.8v0.7h0.1c0.6-0.1,1.2-0.2,1.9-0.2v5.7h0.9v-5.7
	c0.6,0,1.2,0.1,1.8,0.2H111.9z M115,62.8c-1.7-0.1-3.2,1.2-3.4,2.9c0,0.1,0,0.2,0,0.4c-0.1,1.8,1.3,3.2,3.1,3.3c0.1,0,0.2,0,0.3,0
	c1.8,0.1,3.4-1.3,3.5-3.1c0-0.1,0-0.1,0-0.2c0-1.8-1.5-3.2-3.3-3.2C115.2,62.8,115.1,62.8,115,62.8L115,62.8z M116.8,68.1
	c-0.4,0.5-1,0.7-1.6,0.7c-1.4,0-2.5-1.2-2.4-2.5c0-0.1,0-0.1,0-0.2c0-1.8,0.9-3,2.5-3c0.7,0,1.4,0.3,1.8,0.9c0.4,0.6,0.6,1.3,0.5,2
	v0.2C117.5,66.9,117.2,67.6,116.8,68.1L116.8,68.1z M124.8,62.9h-0.6v4.6l-4.3-4.6h-0.4v6.2h0.6v-4.8l3.9,4.3l0.5,0.6h0.3
	L124.8,62.9z M134.9,62.9l-0.2-0.1l-1.5,2.7c0,0-0.9,1.7-1.1,1.9c-0.9-1.6-1.7-3.2-2.5-4.6h-0.3v0.1c-0.1,0.9-0.6,4.7-0.9,6.2v0.1
	h0.8v-0.1c0-0.9,0.2-2.2,0.3-3.6c0-0.3,0.1-0.6,0.2-0.9c0.2,0.2,1.2,2.4,1.7,3.4l0.5,1.1h0.2V69c0.7-1.5,1.4-3,2.3-4.4
	c0.2,1.1,0.3,3.2,0.5,4.4v0.1h0.9v-0.1C135.5,67.6,135.2,65.6,134.9,62.9L134.9,62.9z M139.2,62.8H139l-2.9,6.4h0.8v-0.1
	c0.2-0.8,0.5-1.5,0.8-2.3c0,0,0.1-0.1,0.1-0.2h2.1c0.3,0.7,0.6,1.5,0.9,2.4v0.1h1.1L139.2,62.8z M138,66.3c0.1-0.2,0.8-1.9,0.9-2.1
	c0.1,0.2,0.9,1.9,0.9,2.1H138z M144.8,66.1c1.1-0.2,1.8-0.9,1.8-1.7s-0.7-1.4-2-1.4h-2v6.2h0.9v-3h0.2c0.2,0.3,0.4,0.5,0.7,0.8
	l1.1,1.4l0.6,0.8h1.1C147.1,69.2,144.7,66.2,144.8,66.1L144.8,66.1z M143.4,65.7v-2.4c0.4,0,0.8,0,1.2,0c0.6,0.2,0.9,0.5,0.9,1.1
	c0,0.6-0.5,1.1-1.1,1.2C144.1,65.7,143.8,65.8,143.4,65.7L143.4,65.7z M151.7,62.9H147v0.6h0.1c0.6-0.1,1.3-0.1,1.9-0.2v5.7h0.9
	v-5.7c0.6,0,1.2,0.1,1.8,0.2h0.1V62.9z M152.5,62.9h0.9v6.2h-0.9V62.9z M159.5,67.5l-4.3-4.6h-0.5v6.2h0.6v-4.8l3.9,4.3l0.5,0.6h0.4
	v-6.3h-0.6V67.5z M86.5,113.8c-5.9,0-10.6,4-10.6,10.2s4.2,10.2,10.6,10.2s10.9-4.2,10.9-10.6C97.4,116.8,91.9,113.8,86.5,113.8
	L86.5,113.8z M86.6,133.2c-4.3,0-7.8-3.1-7.8-8.8s3-9.7,8.1-9.7c2.3,0,4.5,1,5.9,2.7c1.3,1.8,1.9,4.1,1.8,6.3
	C94.7,127,92.5,133.2,86.6,133.2L86.6,133.2z M76.1,115.1c0-0.3,0.1-0.6,0.1-0.9H61.4c0,0.3,0.1,0.5,0.1,0.9s-0.1,0.5-0.1,0.9
	c2.1-0.2,4.2-0.3,6.2-0.3v18.3c0.4,0,0.8-0.1,1.2-0.1s0.8,0.1,1.2,0.1v-18.3c2,0,4,0.1,6,0.3C76.1,115.7,76.1,115.4,76.1,115.1z
	 M51,118.4c0-1.9,1.6-3.4,3.4-3.4c0.1,0,0.1,0,0.2,0c1.6,0,3.1,1,3.6,2.5h0.3c0.2-0.8,0.5-1.6,0.8-2.3c-1.2-0.9-2.6-1.4-4.1-1.4
	c-3.4,0-6.4,1.8-6.4,5.5c0,6.5,9,4.2,9,9.5c0.1,2.3-1.7,4.2-4,4.2c0,0,0,0,0,0c-2.3,0-3.5-1.1-4.6-3H49c-0.1,0.9-0.3,1.7-0.5,2.6
	c1.3,1.1,3,1.7,4.7,1.7c3.9,0,7.1-2.4,7.1-6.5C60.1,121.5,51.1,123.6,51,118.4z M115.4,114.3V129h-0.3l-13.6-14.8h-1.1v19.6
	c0.3-0.1,0.5-0.1,0.8-0.1c0.2,0,0.5,0.1,0.8,0.1v-15.5h0.3l12.4,13.7c0.6,0.7,1.2,1.4,1.5,1.7h0.9v-19.6c-0.3,0-0.5,0.1-0.8,0.1
	C115.9,114.3,115.7,114.3,115.4,114.3z M37.9,113.8l-9,20.1c0.3-0.1,0.7-0.1,1-0.1c0.4,0,0.7,0.1,1.1,0.1c0.8-2.6,1.7-5.2,2.8-7.7
	H41c1.1,2.7,2.2,5.3,3,7.7c0.5-0.1,1-0.1,1.5-0.1c0.5,0,0.9,0.1,1.5,0.1l-8.6-20L37.9,113.8L37.9,113.8z M34.4,125l3.1-7.3l3.2,7.3
	H34.4z M205.7,114.3v19.6c0.4-0.1,0.8-0.1,1.2-0.1c0.4,0,0.8,0.1,1.2,0.1v-19.6c-0.5,0-0.9,0.1-1.2,0.1S206.1,114.3,205.7,114.3z
	 M187.6,114.3c0.1,0.3,0.1,0.6,0.1,0.9c0,0.3-0.1,0.5-0.1,0.9c2.1-0.2,4.2-0.3,6.2-0.3v18.3c0.4,0,0.8-0.1,1.2-0.1s0.8,0.1,1.2,0.1
	v-18.3c2,0,4,0.1,6,0.3c0-0.3-0.1-0.6-0.1-0.9s0.1-0.6,0.1-0.9H187.6z M185.7,131.5l-5.9-7.5c2.9-0.5,5.9-2.1,5.9-5.5
	c0-2.9-2-4.3-6.4-4.3h-6.1v19.6c0.4-0.1,0.8-0.1,1.2-0.1c0.4,0,0.8,0.1,1.2,0.1v-9.6h1.1l2.3,2.7l3.4,4.4c0.6,0.8,1.2,1.6,1.8,2.5
	c0.5-0.1,1.1-0.1,1.6-0.1c0.6,0,1.1,0.1,1.7,0.1l-0.6-0.7L185.7,131.5z M175.7,123.2v-7.8c1.4-0.1,2.8-0.1,4.2,0
	c1.9,0.1,3.3,1.8,3.1,3.6c0,0,0,0,0,0c0,2.1-1.6,3.9-3.7,4.1C178.2,123.3,177,123.3,175.7,123.2L175.7,123.2z M149.3,114.3h-0.6
	c-2.9,5.2-5.5,10.1-8.3,15c-3-5.1-5.9-10.5-8.1-15h-0.8c-0.3,3-2,15-2.7,19.6c0.4-0.1,0.7-0.1,1.1-0.1c0.3,0,0.6,0.1,1,0.1
	c0-3.5,0.8-9.2,1.4-14.8c2,3.7,4,7.5,5.8,11.2l1.6,3.3h0.3c1.7-4,4.2-8.5,7.5-14.4c0.4,2.8,1,9.1,1.4,14.8c0.4-0.1,0.9-0.1,1.3-0.1
	c0.5,0,0.8,0.1,1.3,0.1C150.9,128.4,150.1,121.4,149.3,114.3L149.3,114.3z M228.9,133.9v-19.5c-0.3,0-0.6,0.1-0.8,0.1
	s-0.6-0.1-0.8-0.1v14.8H227l-13.6-14.8h-1.1v19.6c0.3-0.1,0.5-0.1,0.8-0.1c0.2,0,0.5,0.1,0.8,0.1v-15.4h0.2l12.4,13.8
	c0.6,0.7,1.2,1.4,1.5,1.7L228.9,133.9z M161.9,113.8l-9,20c0.3-0.1,0.7-0.1,1-0.1c0.3,0,0.6,0.1,1.1,0.1c0.8-2.6,1.7-5.2,2.8-7.7
	h7.3c1.1,2.7,2.2,5.3,3.1,7.7c0.5-0.1,1-0.1,1.5-0.1c0.5,0,0.9,0.1,1.5,0.1l-8.6-20H161.9z M158.5,125l3.1-7.3l3.2,7.3H158.5z"/>
</svg>
