<svg xmlns="http://www.w3.org/2000/svg" width="1500" height="1000" viewBox="0 0 265.5 34.7"><title>Hublot logo</title><path d="M422.13,495.59H417c0,5.16-2,8.31-7.41,10.81V495.59h-5.17V508.3c-1.27.39-2.66.76-4.17,1.14h0q-1.7.41-3.28.87V495.59h-5.17V512c-8,3.19-12.54,7.94-12.54,16.39h5.14c0-5.16,2-8.31,7.41-10.81v10.81H397V515.73c1.27-.39,2.66-.76,4.17-1.14h0q1.7-.41,3.28-.86v14.72h5.17V512C417.55,508.79,422.13,504,422.13,495.59Z" transform="translate(-379.25 -494.65)" style="fill:#171717"/><path d="M441.39,495.58v32.86h6.39v-13.9H464.2v13.9h6.34V495.59H464.2v12.23H447.78V495.58h-6.39" transform="translate(-379.25 -494.65)" style="fill:#171717"/><path d="M503.5,495.59v17.15c0,5-.51,10.27-8.61,10.27s-8.68-5.17-8.68-10.27V495.59h-6.35v17.55c0,7.84,2.17,16.21,15,16.21s15-8.49,15-16.21V495.59H503.5" transform="translate(-379.25 -494.65)" style="fill:#171717"/><path d="M556.59,495.59v32.84h22v-6.65H563v-26.2Z" transform="translate(-379.25 -494.65)" style="fill:#171717"/><path d="M598,522.85a10.94,10.94,0,1,1,11.07-10.94A10.89,10.89,0,0,1,598,522.85Zm0-28.2a17.27,17.27,0,1,0,17.47,17.27A17.19,17.19,0,0,0,598,494.65Z" transform="translate(-379.25 -494.65)" style="fill:#171717"/><path d="M618.12,495.59v6.68h10.25v26.17h6.39V502.27h10v-6.68Z" transform="translate(-379.25 -494.65)" style="fill:#171717"/><path d="M535.84,522.44H524.76v-8.25h11.12c3.29,0,4.72,1.29,4.72,4.24,0,2.21-.9,4-4.76,4Zm-1-20.84c3.56,0,4.65,1.3,4.65,3.46s-1,3.7-4.52,3.7H524.76v-7.17Zm8.44,9.61a8.07,8.07,0,0,0,3.1-6.55c0-2.73-1.1-9.08-11.23-9.08H518.42v32.85h17.82c7.17,0,11.29-3.65,11.29-10A8.11,8.11,0,0,0,543.3,511.21Z" transform="translate(-379.25 -494.65)" style="fill:#171717"/></svg>